<?xml version="1.0" standalone="no"?><!-- Generator: Gravit.io --><svg xmlns="http://www.w3.org/2000/svg" xmlns:xlink="http://www.w3.org/1999/xlink" style="isolation:isolate" viewBox="0 0 450 220" width="450" height="220"><defs><clipPath id="_clipPath_pbgVJieB2ZcruO2VIOQLayFO0OlEAQ17"><rect width="450" height="220"/></clipPath></defs><g clip-path="url(#_clipPath_pbgVJieB2ZcruO2VIOQLayFO0OlEAQ17)"><rect width="450" height="220" style="fill:rgb(91,81,81)"/><path d=" M 51 137 L 82 107 L 115 117 L 139 88 L 159 94 L 179.625 70 L 192 50" fill="none" vector-effect="non-scaling-stroke" stroke-width="3" stroke="rgb(207,244,42)" stroke-linejoin="miter" stroke-linecap="square" stroke-miterlimit="3"/><path d=" M 63 137 L 82 117 L 115 130 L 135 107 L 151 88 L 168 70 L 179.625 37" fill="none" vector-effect="non-scaling-stroke" stroke-width="3" stroke="rgb(255,153,112)" stroke-linejoin="miter" stroke-linecap="square" stroke-miterlimit="3"/><g style="opacity:0.25;"><line x1="-0.25" y1="108" x2="216.75" y2="108" vector-effect="non-scaling-stroke" stroke-width="1" stroke="rgb(255,255,255)" stroke-linejoin="miter" stroke-linecap="square" stroke-miterlimit="3"/><line x1="-0.081" y1="86" x2="216.919" y2="86" vector-effect="non-scaling-stroke" stroke-width="1" stroke="rgb(255,255,255)" stroke-linejoin="miter" stroke-linecap="square" stroke-miterlimit="3"/><line x1="1.25" y1="131" x2="218.25" y2="131" vector-effect="non-scaling-stroke" stroke-width="1" stroke="rgb(255,255,255)" stroke-linejoin="miter" stroke-linecap="square" stroke-miterlimit="3"/><line x1="-0.25" y1="63" x2="216.75" y2="63" vector-effect="non-scaling-stroke" stroke-width="1" stroke="rgb(255,255,255)" stroke-linejoin="miter" stroke-linecap="square" stroke-miterlimit="3"/><line x1="-0.081" y1="41" x2="216.919" y2="41" vector-effect="non-scaling-stroke" stroke-width="1" stroke="rgb(255,255,255)" stroke-linejoin="miter" stroke-linecap="square" stroke-miterlimit="3"/><line x1="-0.081" y1="19" x2="216.919" y2="19" vector-effect="non-scaling-stroke" stroke-width="1" stroke="rgb(255,255,255)" stroke-linejoin="miter" stroke-linecap="square" stroke-miterlimit="3"/><line x1="-0.081" y1="176" x2="216.919" y2="176" vector-effect="non-scaling-stroke" stroke-width="1" stroke="rgb(255,255,255)" stroke-linejoin="miter" stroke-linecap="square" stroke-miterlimit="3"/><line x1="-0.25" y1="153" x2="216.75" y2="153" vector-effect="non-scaling-stroke" stroke-width="1" stroke="rgb(255,255,255)" stroke-linejoin="miter" stroke-linecap="square" stroke-miterlimit="3"/></g><g style="opacity:0.25;"><line x1="130.5" y1="206.75" x2="130.5" y2="-10.25" vector-effect="non-scaling-stroke" stroke-width="1" stroke="rgb(255,255,255)" stroke-linejoin="miter" stroke-linecap="square" stroke-miterlimit="3"/><line x1="108.5" y1="206.581" x2="108.5" y2="-10.419" vector-effect="non-scaling-stroke" stroke-width="1" stroke="rgb(255,255,255)" stroke-linejoin="miter" stroke-linecap="square" stroke-miterlimit="3"/><line x1="153.5" y1="205.25" x2="153.5" y2="-11.75" vector-effect="non-scaling-stroke" stroke-width="1" stroke="rgb(255,255,255)" stroke-linejoin="miter" stroke-linecap="square" stroke-miterlimit="3"/><line x1="85.5" y1="206.75" x2="85.5" y2="-10.25" vector-effect="non-scaling-stroke" stroke-width="1" stroke="rgb(255,255,255)" stroke-linejoin="miter" stroke-linecap="square" stroke-miterlimit="3"/><line x1="63.5" y1="206.581" x2="63.5" y2="-10.419" vector-effect="non-scaling-stroke" stroke-width="1" stroke="rgb(255,255,255)" stroke-linejoin="miter" stroke-linecap="square" stroke-miterlimit="3"/><line x1="41" y1="206.581" x2="41" y2="-10.419" vector-effect="non-scaling-stroke" stroke-width="1" stroke="rgb(255,255,255)" stroke-linejoin="miter" stroke-linecap="square" stroke-miterlimit="3"/><line x1="198.5" y1="206.581" x2="198.5" y2="-10.419" vector-effect="non-scaling-stroke" stroke-width="1" stroke="rgb(255,255,255)" stroke-linejoin="miter" stroke-linecap="square" stroke-miterlimit="3"/><line x1="175.5" y1="206.75" x2="175.5" y2="-10.25" vector-effect="non-scaling-stroke" stroke-width="1" stroke="rgb(255,255,255)" stroke-linejoin="miter" stroke-linecap="square" stroke-miterlimit="3"/></g><path d=" M 0 0 L 259 0 L 259 220 L 0 220 L 0 0 Z  M 9 110 C 9 54.808 53.808 10 109 10 C 164.192 10 209 54.808 209 110 C 209 165.192 164.192 210 109 210 C 53.808 210 9 165.192 9 110 Z " fill-rule="evenodd" fill="rgb(91,81,81)"/><path d=" M 130.5 131 L 130.5 176 L 85.5 176 L 85.5 131 L 41 131 L 41 86 L 41 86 L 85.5 86 L 85.5 86 L 85.5 41 L 130.5 41 L 130.5 12.321 C 123.574 10.801 116.38 10 109 10 C 53.808 10 9 54.808 9 110 L 9 110 L 9 110 C 9 165.192 53.808 210 109 210 C 156.989 210 197.128 176.123 206.787 131 L 177.313 131 L 130.5 131 Z  M 130.5 86 L 177.313 86 L 130.5 86 Z " fill-rule="evenodd" fill="rgb(126,162,247)"/><path d=" M 214.045 168.557 L 214.045 185.842 L 206.047 185.842 L 206.047 154.465 L 207.98 154.465 L 210.617 158.186 L 210.617 158.186 Q 212.551 156.428 215.012 155.476 L 215.012 155.476 L 215.012 155.476 Q 217.473 154.523 220.109 154.523 L 220.109 154.523 L 227.17 154.523 L 227.17 162.492 L 220.109 162.492 L 220.109 162.492 Q 218.85 162.492 217.736 162.961 L 217.736 162.961 L 217.736 162.961 Q 216.623 163.43 215.803 164.25 L 215.803 164.25 L 215.803 164.25 Q 214.982 165.07 214.514 166.184 L 214.514 166.184 L 214.514 166.184 Q 214.045 167.297 214.045 168.557 L 214.045 168.557 L 214.045 168.557 Z  M 261.271 154.523 L 261.271 185.842 L 259.338 185.842 L 256.232 181.535 L 256.232 181.535 Q 255.09 182.561 253.815 183.454 L 253.815 183.454 L 253.815 183.454 Q 252.541 184.348 251.135 185.007 L 251.135 185.007 L 251.135 185.007 Q 249.729 185.666 248.249 186.047 L 248.249 186.047 L 248.249 186.047 Q 246.77 186.428 245.246 186.428 L 245.246 186.428 L 245.246 186.428 Q 241.936 186.428 239.021 185.314 L 239.021 185.314 L 239.021 185.314 Q 236.105 184.201 233.923 182.077 L 233.923 182.077 L 233.923 182.077 Q 231.74 179.953 230.48 176.877 L 230.48 176.877 L 230.48 176.877 Q 229.221 173.801 229.221 169.875 L 229.221 169.875 L 229.221 169.875 Q 229.221 166.213 230.48 163.151 L 230.48 163.151 L 230.48 163.151 Q 231.74 160.09 233.923 157.893 L 233.923 157.893 L 233.923 157.893 Q 236.105 155.695 239.021 154.479 L 239.021 154.479 L 239.021 154.479 Q 241.936 153.264 245.246 153.264 L 245.246 153.264 L 245.246 153.264 Q 246.77 153.264 248.264 153.645 L 248.264 153.645 L 248.264 153.645 Q 249.758 154.025 251.164 154.699 L 251.164 154.699 L 251.164 154.699 Q 252.57 155.373 253.845 156.281 L 253.845 156.281 L 253.845 156.281 Q 255.119 157.189 256.232 158.244 L 256.232 158.244 L 259.338 154.523 L 261.271 154.523 L 261.271 154.523 Z  M 253.215 169.875 L 253.215 169.875 L 253.215 169.875 Q 253.215 168.234 252.585 166.696 L 252.585 166.696 L 252.585 166.696 Q 251.955 165.158 250.871 163.972 L 250.871 163.972 L 250.871 163.972 Q 249.787 162.785 248.337 162.067 L 248.337 162.067 L 248.337 162.067 Q 246.887 161.35 245.246 161.35 L 245.246 161.35 L 245.246 161.35 Q 243.605 161.35 242.155 161.906 L 242.155 161.906 L 242.155 161.906 Q 240.705 162.463 239.636 163.547 L 239.636 163.547 L 239.636 163.547 Q 238.566 164.631 237.951 166.228 L 237.951 166.228 L 237.951 166.228 Q 237.336 167.824 237.336 169.875 L 237.336 169.875 L 237.336 169.875 Q 237.336 171.926 237.951 173.522 L 237.951 173.522 L 237.951 173.522 Q 238.566 175.119 239.636 176.203 L 239.636 176.203 L 239.636 176.203 Q 240.705 177.287 242.155 177.844 L 242.155 177.844 L 242.155 177.844 Q 243.605 178.4 245.246 178.4 L 245.246 178.4 L 245.246 178.4 Q 246.887 178.4 248.337 177.683 L 248.337 177.683 L 248.337 177.683 Q 249.787 176.965 250.871 175.778 L 250.871 175.778 L 250.871 175.778 Q 251.955 174.592 252.585 173.054 L 252.585 173.054 L 252.585 173.054 Q 253.215 171.516 253.215 169.875 Z  M 275.422 183.732 L 275.422 197.795 L 267.365 197.795 L 267.365 154.465 L 269.299 154.465 L 272.492 158.244 L 272.492 158.244 Q 273.576 157.219 274.865 156.311 L 274.865 156.311 L 274.865 156.311 Q 276.154 155.402 277.546 154.743 L 277.546 154.743 L 277.546 154.743 Q 278.938 154.084 280.432 153.703 L 280.432 153.703 L 280.432 153.703 Q 281.926 153.322 283.449 153.322 L 283.449 153.322 L 283.449 153.322 Q 286.76 153.322 289.675 154.509 L 289.675 154.509 L 289.675 154.509 Q 292.59 155.695 294.772 157.863 L 294.772 157.863 L 294.772 157.863 Q 296.955 160.031 298.215 163.093 L 298.215 163.093 L 298.215 163.093 Q 299.475 166.154 299.475 169.875 L 299.475 169.875 L 299.475 169.875 Q 299.475 173.742 298.215 176.833 L 298.215 176.833 L 298.215 176.833 Q 296.955 179.924 294.772 182.077 L 294.772 182.077 L 294.772 182.077 Q 292.59 184.23 289.675 185.373 L 289.675 185.373 L 289.675 185.373 Q 286.76 186.516 283.449 186.516 L 283.449 186.516 L 283.449 186.516 Q 282.395 186.516 281.354 186.281 L 281.354 186.281 L 281.354 186.281 Q 280.314 186.047 279.304 185.651 L 279.304 185.651 L 279.304 185.651 Q 278.293 185.256 277.312 184.758 L 277.312 184.758 L 277.312 184.758 Q 276.33 184.26 275.422 183.732 L 275.422 183.732 L 275.422 183.732 Z  M 291.447 169.875 L 291.447 169.875 L 291.447 169.875 Q 291.447 167.883 290.817 166.301 L 290.817 166.301 L 290.817 166.301 Q 290.188 164.719 289.104 163.62 L 289.104 163.62 L 289.104 163.62 Q 288.02 162.521 286.555 161.936 L 286.555 161.936 L 286.555 161.936 Q 285.09 161.35 283.449 161.35 L 283.449 161.35 L 283.449 161.35 Q 281.809 161.35 280.358 161.936 L 280.358 161.936 L 280.358 161.936 Q 278.908 162.521 277.824 163.62 L 277.824 163.62 L 277.824 163.62 Q 276.74 164.719 276.11 166.301 L 276.11 166.301 L 276.11 166.301 Q 275.48 167.883 275.48 169.875 L 275.48 169.875 L 275.48 169.875 Q 275.48 171.779 276.11 173.361 L 276.11 173.361 L 276.11 173.361 Q 276.74 174.943 277.824 176.057 L 277.824 176.057 L 277.824 176.057 Q 278.908 177.17 280.358 177.785 L 280.358 177.785 L 280.358 177.785 Q 281.809 178.4 283.449 178.4 L 283.449 178.4 L 283.449 178.4 Q 285.09 178.4 286.555 177.785 L 286.555 177.785 L 286.555 177.785 Q 288.02 177.17 289.104 176.057 L 289.104 176.057 L 289.104 176.057 Q 290.188 174.943 290.817 173.361 L 290.817 173.361 L 290.817 173.361 Q 291.447 171.779 291.447 169.875 Z  M 311.896 167.912 L 311.896 185.842 L 303.898 185.842 L 303.898 141.984 L 311.896 141.984 L 311.896 155.842 L 311.896 155.842 Q 313.332 154.758 314.855 154.304 L 314.855 154.304 L 314.855 154.304 Q 316.379 153.85 317.961 153.85 L 317.961 153.85 L 317.961 153.85 Q 320.861 153.85 323.41 154.948 L 323.41 154.948 L 323.41 154.948 Q 325.959 156.047 327.849 157.966 L 327.849 157.966 L 327.849 157.966 Q 329.738 159.885 330.837 162.448 L 330.837 162.448 L 330.837 162.448 Q 331.936 165.012 331.936 167.912 L 331.936 167.912 L 331.936 185.842 L 323.879 185.842 L 323.879 167.912 L 323.938 167.912 L 323.938 167.912 Q 323.938 166.682 323.469 165.583 L 323.469 165.583 L 323.469 165.583 Q 323 164.484 322.18 163.664 L 322.18 163.664 L 322.18 163.664 Q 321.359 162.844 320.275 162.375 L 320.275 162.375 L 320.275 162.375 Q 319.191 161.906 317.961 161.906 L 317.961 161.906 L 317.961 161.906 Q 316.701 161.906 315.588 162.375 L 315.588 162.375 L 315.588 162.375 Q 314.475 162.844 313.654 163.664 L 313.654 163.664 L 313.654 163.664 Q 312.834 164.484 312.365 165.583 L 312.365 165.583 L 312.365 165.583 Q 311.896 166.682 311.896 167.912 L 311.896 167.912 L 311.896 167.912 Z  M 367.941 169.875 L 367.941 169.875 L 367.941 169.875 Q 367.941 173.391 366.682 176.423 L 366.682 176.423 L 366.682 176.423 Q 365.422 179.455 363.254 181.667 L 363.254 181.667 L 363.254 181.667 Q 361.086 183.879 358.171 185.153 L 358.171 185.153 L 358.171 185.153 Q 355.256 186.428 351.916 186.428 L 351.916 186.428 L 351.916 186.428 Q 348.605 186.428 345.69 185.153 L 345.69 185.153 L 345.69 185.153 Q 342.775 183.879 340.593 181.667 L 340.593 181.667 L 340.593 181.667 Q 338.41 179.455 337.15 176.423 L 337.15 176.423 L 337.15 176.423 Q 335.891 173.391 335.891 169.875 L 335.891 169.875 L 335.891 169.875 Q 335.891 166.301 337.15 163.254 L 337.15 163.254 L 337.15 163.254 Q 338.41 160.207 340.593 157.995 L 340.593 157.995 L 340.593 157.995 Q 342.775 155.783 345.69 154.523 L 345.69 154.523 L 345.69 154.523 Q 348.605 153.264 351.916 153.264 L 351.916 153.264 L 351.916 153.264 Q 355.256 153.264 358.171 154.45 L 358.171 154.45 L 358.171 154.45 Q 361.086 155.637 363.254 157.819 L 363.254 157.819 L 363.254 157.819 Q 365.422 160.002 366.682 163.063 L 366.682 163.063 L 366.682 163.063 Q 367.941 166.125 367.941 169.875 Z  M 359.885 169.875 L 359.885 169.875 L 359.885 169.875 Q 359.885 167.941 359.255 166.374 L 359.255 166.374 L 359.255 166.374 Q 358.625 164.807 357.541 163.679 L 357.541 163.679 L 357.541 163.679 Q 356.457 162.551 355.007 161.95 L 355.007 161.95 L 355.007 161.95 Q 353.557 161.35 351.916 161.35 L 351.916 161.35 L 351.916 161.35 Q 350.275 161.35 348.825 161.95 L 348.825 161.95 L 348.825 161.95 Q 347.375 162.551 346.306 163.679 L 346.306 163.679 L 346.306 163.679 Q 345.236 164.807 344.621 166.374 L 344.621 166.374 L 344.621 166.374 Q 344.006 167.941 344.006 169.875 L 344.006 169.875 L 344.006 169.875 Q 344.006 171.691 344.621 173.244 L 344.621 173.244 L 344.621 173.244 Q 345.236 174.797 346.306 175.939 L 346.306 175.939 L 346.306 175.939 Q 347.375 177.082 348.825 177.741 L 348.825 177.741 L 348.825 177.741 Q 350.275 178.4 351.916 178.4 L 351.916 178.4 L 351.916 178.4 Q 353.557 178.4 355.007 177.785 L 355.007 177.785 L 355.007 177.785 Q 356.457 177.17 357.541 176.057 L 357.541 176.057 L 357.541 176.057 Q 358.625 174.943 359.255 173.361 L 359.255 173.361 L 359.255 173.361 Q 359.885 171.779 359.885 169.875 Z  M 394.162 185.842 L 388.098 185.842 L 388.098 185.842 Q 385.197 185.842 382.648 184.743 L 382.648 184.743 L 382.648 184.743 Q 380.1 183.645 378.181 181.726 L 378.181 181.726 L 378.181 181.726 Q 376.262 179.807 375.163 177.258 L 375.163 177.258 L 375.163 177.258 Q 374.064 174.709 374.064 171.809 L 374.064 171.809 L 374.064 162.492 L 370.168 162.492 L 370.168 154.523 L 374.064 154.523 L 374.064 141.984 L 382.033 141.984 L 382.033 154.523 L 394.162 154.523 L 394.162 162.492 L 382.033 162.492 L 382.033 171.809 L 382.033 171.809 Q 382.033 173.068 382.502 174.167 L 382.502 174.167 L 382.502 174.167 Q 382.971 175.266 383.791 176.086 L 383.791 176.086 L 383.791 176.086 Q 384.611 176.906 385.725 177.39 L 385.725 177.39 L 385.725 177.39 Q 386.838 177.873 388.098 177.873 L 388.098 177.873 L 394.162 177.873 L 394.162 185.842 L 394.162 185.842 Z  M 420.441 185.842 L 414.377 185.842 L 414.377 185.842 Q 411.477 185.842 408.928 184.743 L 408.928 184.743 L 408.928 184.743 Q 406.379 183.645 404.46 181.726 L 404.46 181.726 L 404.46 181.726 Q 402.541 179.807 401.442 177.258 L 401.442 177.258 L 401.442 177.258 Q 400.344 174.709 400.344 171.809 L 400.344 171.809 L 400.344 162.492 L 396.447 162.492 L 396.447 154.523 L 400.344 154.523 L 400.344 141.984 L 408.313 141.984 L 408.313 154.523 L 420.441 154.523 L 420.441 162.492 L 408.313 162.492 L 408.313 171.809 L 408.313 171.809 Q 408.313 173.068 408.781 174.167 L 408.781 174.167 L 408.781 174.167 Q 409.25 175.266 410.07 176.086 L 410.07 176.086 L 410.07 176.086 Q 410.891 176.906 412.004 177.39 L 412.004 177.39 L 412.004 177.39 Q 413.117 177.873 414.377 177.873 L 414.377 177.873 L 420.441 177.873 L 420.441 185.842 L 420.441 185.842 Z  M 434.357 145.939 L 434.357 145.939 L 434.357 145.939 Q 434.357 147.053 433.933 148.02 L 433.933 148.02 L 433.933 148.02 Q 433.508 148.986 432.775 149.704 L 432.775 149.704 L 432.775 149.704 Q 432.043 150.422 431.062 150.847 L 431.062 150.847 L 431.062 150.847 Q 430.08 151.271 428.967 151.271 L 428.967 151.271 L 428.967 151.271 Q 427.854 151.271 426.872 150.847 L 426.872 150.847 L 426.872 150.847 Q 425.891 150.422 425.173 149.704 L 425.173 149.704 L 425.173 149.704 Q 424.455 148.986 424.03 148.02 L 424.03 148.02 L 424.03 148.02 Q 423.605 147.053 423.605 145.939 L 423.605 145.939 L 423.605 145.939 Q 423.605 144.855 424.03 143.874 L 424.03 143.874 L 424.03 143.874 Q 424.455 142.893 425.173 142.175 L 425.173 142.175 L 425.173 142.175 Q 425.891 141.457 426.872 141.032 L 426.872 141.032 L 426.872 141.032 Q 427.854 140.607 428.967 140.607 L 428.967 140.607 L 428.967 140.607 Q 430.08 140.607 431.062 141.032 L 431.062 141.032 L 431.062 141.032 Q 432.043 141.457 432.775 142.175 L 432.775 142.175 L 432.775 142.175 Q 433.508 142.893 433.933 143.874 L 433.933 143.874 L 433.933 143.874 Q 434.357 144.855 434.357 145.939 Z  M 432.98 154.465 L 432.98 185.842 L 424.924 185.842 L 424.924 154.465 L 432.98 154.465 L 432.98 154.465 Z " fill-rule="evenodd" fill="rgb(126,162,247)"/></g></svg>